<svg width="42" height="46" viewBox="0 0 42 46" fill="none" xmlns="http://www.w3.org/2000/svg">
<path d="M7.3 9.14786L2 16.2145V40.9479C2 41.885 2.37226 42.7837 3.03489 43.4463C3.69752 44.1089 4.59624 44.4812 5.53333 44.4812H30.2667C31.2038 44.4812 32.1025 44.1089 32.7651 43.4463C33.4277 42.7837 33.8 41.885 33.8 40.9479V16.2145L28.5 9.14786H7.3Z" stroke="#000203" stroke-width="3.02857" stroke-linecap="round" stroke-linejoin="round"/>
<path d="M2 16.2143H33.8" stroke="#000203" stroke-width="3.02857" stroke-linecap="round" stroke-linejoin="round"/>
<path d="M25.1333 24.7494C25.1333 26.6236 24.3888 28.421 23.0636 29.7463C21.7383 31.0715 19.9409 31.8161 18.0667 31.8161C16.1925 31.8161 14.395 31.0715 13.0698 29.7463C11.7445 28.421 11 26.6236 11 24.7494" stroke="#000203" stroke-width="3.02857" stroke-linecap="round" stroke-linejoin="round"/>
<rect x="19.2428" y="2.26368" width="21.2" height="22.7143" rx="10.6" fill="white" stroke="#000203" stroke-width="3.02857"/>
<path d="M31.8232 7.76521V18.7782H29.4948V9.97534H29.4302L26.9082 11.5563V9.49137L29.6346 7.76521H31.8232Z" fill="#000203"/>
</svg>
