<svg width="60" height="60" viewBox="0 0 60 60" fill="none" xmlns="http://www.w3.org/2000/svg">
<circle cx="30" cy="30" r="29" fill="#FFB700" stroke="white" stroke-width="2"/>
<path d="M23.7812 22.6211C25.125 22.6211 26.1445 23.0898 26.8398 24.0273C27.5352 24.9648 27.8828 26.2812 27.8828 27.9766C27.8828 29.6719 27.5547 30.9961 26.8984 31.9492C26.2422 32.9023 25.2031 33.3789 23.7812 33.3789C22.4609 33.3789 21.457 32.9023 20.7695 31.9492C20.082 30.9961 19.7383 29.6719 19.7383 27.9766C19.7383 26.2812 20.0586 24.9648 20.6992 24.0273C21.3477 23.0898 22.375 22.6211 23.7812 22.6211ZM23.8047 25.0703C23.4219 25.0703 23.1406 25.3125 22.9609 25.7969C22.7812 26.2812 22.6914 27.0156 22.6914 28C22.6914 28.9844 22.7812 29.7227 22.9609 30.2148C23.1406 30.707 23.4219 30.9531 23.8047 30.9531C24.1875 30.9531 24.4688 30.7109 24.6484 30.2266C24.8359 29.7344 24.9297 28.9922 24.9297 28C24.9297 27.0156 24.8359 26.2812 24.6484 25.7969C24.4688 25.3125 24.1875 25.0703 23.8047 25.0703ZM35.9453 22.8672L26.4414 40H23.6289L33.1328 22.8672H35.9453ZM35.7812 29.4648C37.125 29.4648 38.1445 29.9336 38.8398 30.8711C39.5352 31.8086 39.8828 33.125 39.8828 34.8203C39.8828 36.5078 39.5547 37.8281 38.8984 38.7812C38.2422 39.7344 37.2031 40.2109 35.7812 40.2109C34.4609 40.2109 33.457 39.7344 32.7695 38.7812C32.082 37.8281 31.7383 36.5078 31.7383 34.8203C31.7383 33.125 32.0586 31.8086 32.6992 30.8711C33.3477 29.9336 34.375 29.4648 35.7812 29.4648ZM35.8047 31.9141C35.4219 31.9141 35.1406 32.1562 34.9609 32.6406C34.7812 33.125 34.6914 33.8594 34.6914 34.8438C34.6914 35.8281 34.7812 36.5664 34.9609 37.0586C35.1406 37.5508 35.4219 37.7969 35.8047 37.7969C36.1875 37.7969 36.4688 37.5547 36.6484 37.0703C36.8359 36.5781 36.9297 35.8359 36.9297 34.8438C36.9297 33.8594 36.8359 33.125 36.6484 32.6406C36.4688 32.1562 36.1875 31.9141 35.8047 31.9141Z" fill="white"/>
</svg>
