<svg width="24" height="25" viewBox="0 0 24 25" fill="none" xmlns="http://www.w3.org/2000/svg">
<g clip-path="url(#clip0_1069_907)">
<path d="M12.0009 0.390625C5.64976 0.390625 0.503906 5.81055 0.503906 12.5C0.503906 19.1895 5.64976 24.6094 12.0009 24.6094C18.3521 24.6094 23.498 19.1895 23.498 12.5C23.498 5.81055 18.3521 0.390625 12.0009 0.390625ZM17.6475 8.68652L15.7607 18.0518C15.6216 18.7158 15.2461 18.877 14.7222 18.5645L11.848 16.333L10.4618 17.7393C10.3088 17.9004 10.179 18.0371 9.88233 18.0371L10.0863 14.9561L15.413 9.8877C15.6448 9.67285 15.362 9.55078 15.056 9.76562L8.47302 14.1309L5.63585 13.1982C5.01927 12.9932 5.00537 12.5488 5.76565 12.2363L16.8501 7.73437C17.3647 7.53906 17.8144 7.86621 17.6475 8.68652Z" fill="#FFB700"/>
</g>
<defs>
<clipPath id="clip0_1069_907">
<rect width="23" height="25" fill="white" transform="translate(0.5)"/>
</clipPath>
</defs>
</svg>
