<svg width="27" height="17" viewBox="0 0 27 17" fill="none" xmlns="http://www.w3.org/2000/svg">
<path d="M14.6612 17C5.77795 17 0.711118 10.6186 0.5 0H4.94972C5.09588 7.79379 8.37633 11.0951 10.9747 11.7758V0H15.1646V6.72172C17.7305 6.43243 20.4263 3.36937 21.3357 0H25.5256C25.1829 1.74745 24.4998 3.40201 23.519 4.86018C22.5382 6.31835 21.2808 7.54877 19.8254 8.47447C21.4499 9.32032 22.8848 10.5175 24.0353 11.9871C25.1859 13.4567 26.0259 15.1652 26.5 17H21.8879C21.4623 15.4064 20.5973 13.9798 19.4013 12.8991C18.2053 11.8185 16.7315 11.1317 15.1646 10.9249V17H14.6612Z" fill="#FFB700"/>
</svg>
