<svg width="0" height="0">

  <symbol xmlns="http://www.w3.org/2000/svg" viewBox="0 0 42 46" id="cart">
    <path d="M7.3 9.14786L2 16.2145V40.9479C2 41.885 2.37226 42.7837 3.03489 43.4463C3.69752 44.1089 4.59624 44.4812 5.53333 44.4812H30.2667C31.2038 44.4812 32.1025 44.1089 32.7651 43.4463C33.4277 42.7837 33.8 41.885 33.8 40.9479V16.2145L28.5 9.14786H7.3Z" stroke-width="3.02857" stroke-linecap="round" stroke-linejoin="round"/>
    <path d="M2 16.2143H33.8" stroke-width="3.02857" stroke-linecap="round" stroke-linejoin="round"/>
    <path d="M25.1333 24.7494C25.1333 26.6236 24.3888 28.421 23.0636 29.7463C21.7383 31.0715 19.9409 31.8161 18.0667 31.8161C16.1925 31.8161 14.395 31.0715 13.0698 29.7463C11.7445 28.421 11 26.6236 11 24.7494" stroke-width="3.02857" stroke-linecap="round" stroke-linejoin="round"/>
    <!-- <rect x="19.2428" y="2.26368" width="21.2" height="22.7143" rx="10.6" stroke="#000203" stroke-width="3.02857"/>
    <path d="M31.8232 7.76521V18.7782H29.4948V9.97534H29.4302L26.9082 11.5563V9.49137L29.6346 7.76521H31.8232Z" stroke="#000203" fill="#000203"/> -->
  </symbol>
  <symbol xmlns="http://www.w3.org/2000/svg" viewBox="0 0 84 84" id="close">
    <path d="M53.8867 29.5508L29.5505 53.887" stroke-width="2" stroke-linecap="round" stroke-linejoin="round"/>
    <path d="M29.5508 29.5508L53.887 53.887" stroke-width="2" stroke-linecap="round" stroke-linejoin="round"/>
  </symbol>
  <symbol xmlns="http://www.w3.org/2000/svg" viewBox="0 0 44 40" id="burger">
    <path d="M38.5 10H5.5" stroke-width="3" stroke-linecap="round" stroke-linejoin="round"/>
    <path d="M27.5 20H5.5" stroke-width="3" stroke-linecap="round" stroke-linejoin="round"/>
    <path d="M31.1667 30H5.5" stroke-width="3" stroke-linecap="round" stroke-linejoin="round"/>
  </symbol>

  <symbol viewBox="0 0 9 14" fill="none" xmlns="http://www.w3.org/2000/svg" id="arrow">
    <path d="M1.5 13L7.5 7L1.5 1"  stroke-width="2" stroke-linecap="round" stroke-linejoin="round"/>
  </symbol>

  <symbol viewBox="0 0 24 25" fill="none" xmlns="http://www.w3.org/2000/svg" id="tg">
    <g clip-path="url(#clip0_1069_907)">
    <path d="M12.0009 0.390625C5.64976 0.390625 0.503906 5.81055 0.503906 12.5C0.503906 19.1895 5.64976 24.6094 12.0009 24.6094C18.3521 24.6094 23.498 19.1895 23.498 12.5C23.498 5.81055 18.3521 0.390625 12.0009 0.390625ZM17.6475 8.68652L15.7607 18.0518C15.6216 18.7158 15.2461 18.877 14.7222 18.5645L11.848 16.333L10.4618 17.7393C10.3088 17.9004 10.179 18.0371 9.88233 18.0371L10.0863 14.9561L15.413 9.8877C15.6448 9.67285 15.362 9.55078 15.056 9.76562L8.47302 14.1309L5.63585 13.1982C5.01927 12.9932 5.00537 12.5488 5.76565 12.2363L16.8501 7.73437C17.3647 7.53906 17.8144 7.86621 17.6475 8.68652Z" fill="#FFB700"/>
    </g>
    <defs>
    <clipPath id="clip0_1069_907">
    <rect width="23" height="25" fill="white" transform="translate(0.5)"/>
    </clipPath>
    </defs>
  </symbol>

  <symbol viewBox="0 0 27 17" fill="none" xmlns="http://www.w3.org/2000/svg" id="vk">
    <path d="M14.6612 17C5.77795 17 0.711118 10.6186 0.5 0H4.94972C5.09588 7.79379 8.37633 11.0951 10.9747 11.7758V0H15.1646V6.72172C17.7305 6.43243 20.4263 3.36937 21.3357 0H25.5256C25.1829 1.74745 24.4998 3.40201 23.519 4.86018C22.5382 6.31835 21.2808 7.54877 19.8254 8.47447C21.4499 9.32032 22.8848 10.5175 24.0353 11.9871C25.1859 13.4567 26.0259 15.1652 26.5 17H21.8879C21.4623 15.4064 20.5973 13.9798 19.4013 12.8991C18.2053 11.8185 16.7315 11.1317 15.1646 10.9249V17H14.6612Z" fill="#FFB700"/>
  </symbol>

  <symbol viewBox="0 0 23 13" fill="none" xmlns="http://www.w3.org/2000/svg" id="faq">
    <path d="M21.5 1L11.5 11L1.5 0.999999" stroke-width="2"/>
  </symbol>

  <symbol xmlns="http://www.w3.org/2000/svg"  viewBox="0 0 30 36"  id="basket">
    <path d="M1 7.8H4.11111M4.11111 7.8H29M4.11111 7.8V31.6C4.11111 32.5017 4.43889 33.3665 5.02233 34.0042C5.60578 34.6418 6.3971 35 7.22222 35H22.7778C23.6029 35 24.3942 34.6418 24.9777 34.0042C25.5611 33.3665 25.8889 32.5017 25.8889 31.6V7.8H4.11111ZM8.77778 7.8V4.4C8.77778 3.49826 9.10556 2.63346 9.689 1.99584C10.2724 1.35821 11.0638 1 11.8889 1H18.1111C18.9362 1 19.7276 1.35821 20.311 1.99584C20.8944 2.63346 21.2222 3.49826 21.2222 4.4V7.8M11.8889 16.3V26.5M18.1111 16.3V26.5" stroke="#000203" stroke-width="2" stroke-linecap="round" stroke-linejoin="round"/>
  </symbol>

  <!-- <svg xmlns="http://www.w3.org/2000/svg" width="26" height="26" viewBox="0 0 26 26" fill="none" id="chek">
<rect width="26" height="26" rx="4" fill="#FFB700"/>
<path d="M21 7L10 18L5 13" stroke="white" stroke-width="2" stroke-linecap="round" stroke-linejoin="round"/>
</svg> -->

</svg>